<svg width="65" height="35" viewBox="0 0 65 35" fill="none" xmlns="http://www.w3.org/2000/svg">
<path d="M15.588 15.9504C17.1845 15.9504 18.4787 14.6818 18.4787 13.1171C18.4787 11.5523 17.1845 10.2838 15.588 10.2838C13.9915 10.2838 12.6973 11.5523 12.6973 13.1171C12.6973 14.6818 13.9915 15.9504 15.588 15.9504Z" stroke="#101010" stroke-width="0.731399" stroke-miterlimit="10"/>
<path d="M17.8995 7.33726C19.496 7.33726 20.7902 6.06875 20.7902 4.50396C20.7902 2.93917 19.496 1.67065 17.8995 1.67065C16.303 1.67065 15.0088 2.93917 15.0088 4.50396C15.0088 6.06875 16.303 7.33726 17.8995 7.33726Z" stroke="#101010" stroke-width="0.731399" stroke-miterlimit="10"/>
<path d="M18.0125 4.81575C18.0356 4.81428 18.0582 4.80808 18.0786 4.79757C18.099 4.78705 18.1169 4.77247 18.1309 4.7548C18.415 4.38039 18.0544 4.26894 18.0544 4.26894L12.4679 4.69559C12.4412 4.69889 12.414 4.69591 12.3888 4.68691C12.3635 4.67792 12.341 4.66318 12.323 4.64397C12.3051 4.62476 12.2923 4.60166 12.2858 4.57667C12.2793 4.55168 12.2793 4.52556 12.2857 4.50055C12.3843 4.05586 12.5552 3.62868 12.7921 3.23454C12.8208 3.18441 12.8631 3.14259 12.9145 3.11345C12.966 3.08432 13.0247 3.06895 13.0844 3.06895C13.1442 3.06895 13.2029 3.08432 13.2543 3.11345C13.3058 3.14259 13.3481 3.18441 13.3768 3.23454L13.375 3.67338C13.3731 3.70328 13.3807 3.73303 13.3968 3.75871C13.4283 3.80468 13.4708 3.84287 13.5207 3.87016C13.5443 3.88191 13.5706 3.88799 13.5973 3.88785C13.6239 3.88771 13.6501 3.88136 13.6736 3.86935C13.6971 3.85735 13.7172 3.84004 13.7321 3.81894C13.7471 3.79784 13.7564 3.77358 13.7593 3.74826C13.803 3.39997 13.8139 2.61981 13.0526 2.58847C12.0252 2.53971 11.7575 4.39781 11.6937 5.08219C11.6906 5.11445 11.6947 5.14698 11.7058 5.17761C11.7168 5.20824 11.7346 5.23627 11.7578 5.25983C11.7811 5.28339 11.8093 5.30194 11.8407 5.31425C11.872 5.32656 11.9058 5.33234 11.9396 5.33121H12.7775C12.8006 5.33135 12.8234 5.33608 12.8444 5.34512C12.8654 5.35415 12.8843 5.36728 12.8997 5.38367C12.9151 5.40006 12.9268 5.41935 12.934 5.4403C12.9412 5.46126 12.9437 5.48341 12.9415 5.50536L12.5498 9.53502C12.5468 9.5728 12.5293 9.6082 12.5008 9.63451C12.4722 9.66082 12.4346 9.67623 12.395 9.67782L11.222 9.74399C11.1971 9.74515 11.1722 9.74093 11.1492 9.73163C11.1263 9.72234 11.1058 9.70821 11.0894 9.6903C11.0729 9.67239 11.0609 9.65116 11.0542 9.6282C11.0475 9.60523 11.0463 9.58112 11.0507 9.55766C11.0914 9.36421 11.1157 9.16796 11.1236 8.9708C11.1236 8.77227 10.9415 8.69913 10.8467 8.64341C10.8338 8.63509 10.8189 8.62996 10.8034 8.62847C10.7879 8.62698 10.7722 8.62917 10.7578 8.63486C10.7434 8.64054 10.7307 8.64954 10.7207 8.66106C10.7108 8.67258 10.7041 8.68625 10.701 8.70088L10.2365 10.8237C10.2306 10.8485 10.2311 10.8744 10.2381 10.899C10.2451 10.9236 10.2583 10.9462 10.2766 10.9647C10.3312 11.0184 10.4044 11.0512 10.4824 11.057C10.5193 11.0601 10.5562 11.0513 10.5872 11.0321C10.6182 11.0128 10.6416 10.9842 10.6537 10.9508L10.8449 10.4284C10.8549 10.3998 10.8732 10.3746 10.8978 10.3558C10.9223 10.337 10.952 10.3253 10.9834 10.3221L12.3786 10.1898C12.4042 10.1872 12.4301 10.1905 12.4541 10.1992C12.4782 10.208 12.4997 10.2221 12.517 10.2403L15.5043 13.3749C15.5197 13.3912 15.5385 13.4043 15.5596 13.4133C15.5806 13.4223 15.6033 13.427 15.6263 13.4271H15.7393C15.774 13.4273 15.8078 13.4169 15.836 13.3975C15.8641 13.3781 15.8851 13.3507 15.8959 13.3191L17.313 9.30341C17.3221 9.27787 17.3241 9.25056 17.319 9.22404C17.3139 9.19753 17.3018 9.1727 17.2839 9.15191L14.0052 5.39042C13.9902 5.37417 13.979 5.35504 13.9724 5.33431C13.9658 5.31358 13.964 5.29174 13.967 5.27026V5.23369C13.9715 5.19754 13.9891 5.16404 14.0167 5.13893C14.0443 5.11383 14.0801 5.09869 14.1181 5.09612L18.0125 4.81575ZM16.5389 10.0104L15.6282 12.3979C15.6183 12.4233 15.6017 12.4458 15.5802 12.4633C15.5586 12.4808 15.5327 12.4927 15.505 12.4979C15.4772 12.5032 15.4485 12.5015 15.4216 12.4932C15.3947 12.4848 15.3705 12.47 15.3513 12.4502L13.3349 10.3605C13.3148 10.3393 13.3011 10.3134 13.2952 10.2854C13.2893 10.2574 13.2914 10.2284 13.3013 10.2015C13.3111 10.1746 13.3285 10.1507 13.3514 10.1324C13.3743 10.1141 13.402 10.102 13.4314 10.0975L16.3458 9.64821C16.3686 9.64604 16.3916 9.64842 16.4134 9.65518C16.4352 9.66195 16.4553 9.67296 16.4724 9.68753C16.4896 9.70209 16.5033 9.71989 16.5129 9.7398C16.5224 9.75971 16.5276 9.7813 16.528 9.8032V9.9547C16.5355 9.97238 16.5392 9.99134 16.5389 10.0104ZM16.2547 9.05439L13.2766 9.50367C13.2521 9.50614 13.2272 9.50333 13.204 9.49545C13.1807 9.48757 13.1596 9.47481 13.1421 9.45813C13.1246 9.44144 13.1113 9.42123 13.1031 9.39898C13.0948 9.37673 13.0919 9.353 13.0945 9.32953L13.4588 6.02082C13.4646 5.99302 13.4781 5.96722 13.4979 5.94612C13.5177 5.92502 13.5431 5.90938 13.5714 5.90085C13.5996 5.89231 13.6298 5.89118 13.6587 5.89758C13.6876 5.90398 13.7142 5.91767 13.7356 5.93723L16.3531 8.79491C16.3722 8.81622 16.3851 8.842 16.3904 8.86962C16.3956 8.89724 16.3932 8.9257 16.3831 8.9521C16.3731 8.97849 16.356 9.00187 16.3334 9.01985C16.3109 9.03782 16.2837 9.04974 16.2547 9.05439Z" fill="#101010" stroke="#101010" stroke-width="0.2438" stroke-miterlimit="10"/>
<path d="M49.0344 29.498L50.2894 26.3077L47.4424 24.319H51.0835L52.2475 21.1583L53.1965 24.3764H56.6846L53.7466 26.2502L54.6355 29.498L52.0635 27.6538" fill="#F57520"/>
<path d="M34.0195 34.8306H37.674L47.8402 1.16248H44.1857L34.0195 34.8306Z" fill="#101010"/>
<path fill-rule="evenodd" clip-rule="evenodd" d="M39.4023 34.8306L40.5319 31.4638H53.3559L53.5793 31.4639C53.9139 31.4643 54.2326 31.4647 54.5392 31.4574C56.2512 31.3693 57.8153 30.4747 59.0228 29.2987C60.2742 28.08 60.9755 26.4398 60.9757 24.7311C60.9758 23.0111 60.2657 21.3608 59.0003 20.1396C58.3547 19.5166 57.5992 19.2231 56.7754 19.0833C56.2445 19.0155 55.7092 18.9752 55.1863 18.9585C54.9556 18.954 54.722 18.9525 54.4863 18.951C54.4103 18.9505 54.3341 18.95 54.2577 18.9494H43.9871L44.9838 15.9002H50.0336C50.9346 15.9002 51.468 15.9093 51.9319 15.9171H51.932C52.6997 15.9301 53.2775 15.9398 55.017 15.9002C55.9315 15.8794 56.5331 15.8518 57.0677 15.7137C57.9324 15.4043 58.7247 14.9159 59.3839 14.2737C60.556 13.1317 61.2129 11.5946 61.2132 9.99335C61.2132 8.38154 60.5692 6.62655 59.3839 5.48218C58.1987 4.33806 56.5974 4.16137 54.9145 4.14817H48.6383L49.3692 1.16251H53.8874C54.2486 1.16251 54.5383 1.15925 54.7895 1.15642C55.6474 1.14677 56.0577 1.14215 57.3426 1.28956C57.5207 1.30999 57.6838 1.34143 57.835 1.38267C59.3478 1.63611 60.741 2.16638 61.8725 3.25881C63.7065 5.02936 64.7065 7.49967 64.7184 9.99335C64.707 12.4712 63.6859 14.8469 61.8725 16.6146C61.6407 16.8406 61.3972 17.0377 61.1435 17.2098C61.3146 17.3349 61.4812 17.4747 61.643 17.6309C63.6009 19.5202 64.7051 22.07 64.7178 24.7311C64.7056 27.3752 63.6155 29.9104 61.6796 31.7967C60.4373 33.0073 58.9093 33.8631 57.2439 34.3365C56.3083 34.65 55.2397 34.8306 54.0203 34.8306H39.4023Z" fill="#101010"/>
<path d="M0.664062 1.16229H4.25211L12.8236 29.5578L11.4947 34.8304L0.664062 1.16229Z" fill="#101010"/>
<path d="M12.8906 34.8305H16.4122L23.8541 7.26079L32.3591 34.8305L34.0867 29.4309L25.183 1.16241H21.8608L12.8906 34.8305Z" fill="#101010"/>
</svg>
