<?xml version="1.0" encoding="utf-8"?><svg viewBox="0 0 121 121" xmlns="http://www.w3.org/2000/svg" xmlns:xlink="http://www.w3.org/1999/xlink"><style>:root>svg{display:none}:root>svg:target{display:block}</style><svg fill="none" viewBox="0 0 20 12" id="arrow" xmlns="http://www.w3.org/2000/svg"><path d="m.902 2.375 8.4 8.425c.1.1.208.17.325.212.116.042.241.063.375.063a1.1 1.1 0 0 0 .375-.063.873.873 0 0 0 .325-.212l8.425-8.425c.233-.233.35-.525.35-.875s-.125-.65-.375-.9a1.2 1.2 0 0 0-.875-.375 1.2 1.2 0 0 0-.875.375l-7.35 7.35L2.652.6A1.171 1.171 0 0 0 1.79.25c-.342 0-.638.125-.888.375a1.2 1.2 0 0 0-.375.875c0 .333.125.625.375.875Z" fill="#101010"/></svg><svg fill="none" viewBox="0 0 32 32" id="calendar" xmlns="http://www.w3.org/2000/svg"><path d="M5.333 14.667h21.334M5.333 9.334v16A2.667 2.667 0 0 0 8 28h16a2.667 2.667 0 0 0 2.667-2.666v-16A2.667 2.667 0 0 0 24 6.667H8a2.667 2.667 0 0 0-2.667 2.667ZM20 4v5.333M12 4v5.333" stroke="#F57520" stroke-width="1.5" stroke-linecap="round" stroke-linejoin="round"/></svg><svg fill="none" viewBox="0 0 21 20" id="cart" xmlns="http://www.w3.org/2000/svg"><path d="M16 15H5.5l-2-14H1"/><path d="M3.786 3H20l-3 9H5.07M8 19a2 2 0 1 0 0-4 2 2 0 0 0 0 4ZM16 19a2 2 0 1 0 0-4 2 2 0 0 0 0 4Z"/></svg><svg fill="none" viewBox="0 0 17 14" id="check" xmlns="http://www.w3.org/2000/svg"><path d="M1.5 7.5 6 12 16 1" stroke="#fff" stroke-width="2"/></svg><svg fill="none" viewBox="0 0 26 25" id="click" xmlns="http://www.w3.org/2000/svg"><path d="M9.875 2.5a.625.625 0 0 1 .625.625v2.5a.625.625 0 1 1-1.25 0v-2.5a.625.625 0 0 1 .625-.625ZM5.013 4.513a.625.625 0 0 1 .885 0L7.665 6.28a.625.625 0 1 1-.884.884L5.014 5.397a.625.625 0 0 1 0-.883l-.002-.002Zm9.725 0a.625.625 0 0 1 0 .885l-1.77 1.767a.625.625 0 1 1-.884-.884l1.767-1.767a.625.625 0 0 1 .884 0l.003-.002ZM3 9.375a.625.625 0 0 1 .625-.625h2.5a.625.625 0 0 1 0 1.25h-2.5A.625.625 0 0 1 3 9.375Zm8.3-.25a1.25 1.25 0 0 0-2.05.959V21.46c0 1.155 1.431 1.692 2.191.824l2.533-2.895a1.874 1.874 0 0 1 1.411-.639h4.014c1.168 0 1.698-1.462.8-2.21L11.3 9.124v.001Zm-.8 12.337V10.084l8.899 7.416h-4.014a3.124 3.124 0 0 0-2.352 1.067L10.5 21.462Z" fill="#fff"/></svg><svg fill="none" viewBox="0 0 32 32" id="e-mail" xmlns="http://www.w3.org/2000/svg"><path d="M26.667 6.667H5.333A1.33 1.33 0 0 0 4 8v16c0 .737.597 1.334 1.333 1.334h21.334c.736 0 1.333-.597 1.333-1.334V8a1.33 1.33 0 0 0-1.333-1.333Z"/><path d="m4.39 7.058 9.724 9.723a2.666 2.666 0 0 0 3.772 0l9.724-9.723"/></svg><svg fill="none" viewBox="0 0 20 18" id="favorite" xmlns="http://www.w3.org/2000/svg"><path d="M2.331 9.047 10 17l7.669-7.953A4.804 4.804 0 0 0 19 5.714C19 3.111 16.965 1 14.454 1a4.465 4.465 0 0 0-3.214 1.38L10 3.668 8.76 2.38A4.465 4.465 0 0 0 5.546 1C3.036 1 1 3.11 1 5.714c0 1.25.479 2.45 1.331 3.333Z"/></svg><svg fill="none" viewBox="0 0 32 32" id="location" xmlns="http://www.w3.org/2000/svg"><g clip-path="url(#ha)"><path d="m20.737 29.815 3.25-24.297L4.572 20.481l10.083 1.203 6.083 8.13Z"/></g><defs><clipPath id="ha"><path fill="#fff" d="M0 0h32v32H0z"/></clipPath></defs></svg><svg fill="none" viewBox="0 0 32 32" id="phone" xmlns="http://www.w3.org/2000/svg"><path d="M21.333 4H10.667A2.667 2.667 0 0 0 8 6.667v18.666A2.667 2.667 0 0 0 10.667 28h10.666A2.667 2.667 0 0 0 24 25.333V6.667A2.667 2.667 0 0 0 21.333 4ZM16 24.013V24"/></svg><svg viewBox="0 0 121 121" id="play" xmlns="http://www.w3.org/2000/svg"><path d="M89.526 56.673c3.326 1.926 3.326 6.728 0 8.654l-42.02 24.328C44.171 91.585 40 89.179 40 85.328V36.672c0-3.851 4.172-6.257 7.505-4.327l42.02 24.328Z"/><circle cx="60.5" cy="60.5" r="60"/></svg><svg fill="none" viewBox="0 0 19 19" id="search" xmlns="http://www.w3.org/2000/svg"><path d="M16 8.5a7.5 7.5 0 1 1-15 0 7.5 7.5 0 0 1 15 0ZM18 18l-4.197-4.197"/></svg><svg viewBox="0 0 21 21" id="telegram" xmlns="http://www.w3.org/2000/svg"><rect width="21" height="21" rx="10.5"/><path d="m14.7 6.616-1.578 8.238s-.221.57-.828.297l-3.64-2.89-.017-.01c.492-.457 4.305-4.007 4.472-4.168.258-.25.098-.398-.202-.21l-5.633 3.705-2.173-.757s-.342-.126-.375-.4c-.033-.274.387-.423.387-.423L13.97 6.4s.729-.331.729.217Z" fill="#fff"/></svg><svg fill="none" viewBox="0 0 18 20" id="user" xmlns="http://www.w3.org/2000/svg"><path d="M13 13H5a4 4 0 0 0-4 4v2h16v-2a4 4 0 0 0-4-4ZM9 9a4 4 0 1 0 0-8 4 4 0 0 0 0 8Z"/></svg><svg viewBox="0 0 22 21" id="viber" xmlns="http://www.w3.org/2000/svg"><rect width="22" height="21" rx="10.5"/><path d="M15.36 6.333a5.877 5.877 0 0 0-4.065-1.608c-3.18 0-5.755 2.45-5.755 5.474 0 .957.282 1.914.765 2.718L5.5 15.75l3.059-.766a6.11 6.11 0 0 0 2.736.651c3.18 0 5.755-2.45 5.755-5.474a5.458 5.458 0 0 0-1.69-3.828Zm-1.288 5.819c-.12.306-.684.612-.966.65a2.36 2.36 0 0 1-.885-.038c-.201-.076-.483-.153-.805-.306-1.449-.574-2.375-1.953-2.455-2.067-.08-.077-.604-.728-.604-1.417 0-.689.363-.995.483-1.148.121-.153.282-.153.403-.153h.281c.08 0 .202-.039.322.23.121.267.403.956.443.995.04.076.04.153 0 .23a.798.798 0 0 1-.161.229c-.08.077-.16.191-.201.23-.08.076-.161.153-.08.268.08.153.362.574.804.957.564.46 1.006.612 1.167.689.161.076.242.038.322-.038.08-.077.362-.383.443-.536.08-.154.201-.115.322-.077.12.038.845.383.966.46.16.076.241.114.281.152.04.115.04.383-.08.69Z" fill="#fff"/></svg><svg viewBox="0 0 21 21" id="vk" xmlns="http://www.w3.org/2000/svg"><rect width="21" height="21" rx="10.5"/><path d="M11.015 14.175c-3.946 0-6.197-2.76-6.29-7.35H6.7c.065 3.37 1.523 4.797 2.677 5.091V6.825h1.861V9.73c1.14-.125 2.337-1.45 2.741-2.906h1.862a5.665 5.665 0 0 1-.892 2.101 5.543 5.543 0 0 1-1.64 1.563 5.72 5.72 0 0 1 1.87 1.519 5.854 5.854 0 0 1 1.095 2.167h-2.05a3.644 3.644 0 0 0-1.104-1.773 3.531 3.531 0 0 0-1.882-.854v2.627h-.224Z" fill="#fff"/></svg></svg>